<?xml version="1.0" standalone="no"?>
<!DOCTYPE svg PUBLIC "-//W3C//DTD SVG 20010904//EN"
 "http://www.w3.org/TR/2001/REC-SVG-20010904/DTD/svg10.dtd">
<svg version="1.0" xmlns="http://www.w3.org/2000/svg"
 width="500.000000pt" height="500.000000pt" viewBox="0 0 500.000000 500.000000"
 preserveAspectRatio="xMidYMid meet">

<g transform="translate(0.000000,500.000000) scale(0.100000,-0.100000)"
fill="#000000" stroke="none">
<path d="M2472 3182 c-17 -23 -32 -44 -32 -49 0 -4 -13 -23 -28 -41 l-28 -34
-36 22 c-40 23 -139 62 -145 56 -2 -2 -5 -53 -6 -115 l-2 -111 -38 0 c-31 0
-160 -27 -175 -36 -14 -9 134 -191 161 -200 12 -3 29 -12 37 -19 19 -16 103
-42 158 -48 46 -6 50 7 5 16 -43 9 -119 64 -142 103 -12 19 -21 37 -21 39 0 8
66 25 99 25 l36 0 -3 45 c-2 25 -1 56 2 70 6 22 8 23 39 13 17 -6 41 -17 52
-25 26 -18 33 -17 40 7 4 11 18 34 32 50 l25 30 18 -22 c9 -13 25 -38 34 -55
l16 -33 38 24 c20 13 47 27 60 31 20 6 22 3 23 -32 1 -21 0 -53 -1 -70 -1 -25
3 -33 15 -33 9 0 13 5 10 10 -3 6 -1 10 4 10 6 0 11 -4 11 -10 0 -5 8 -10 19
-10 10 0 32 -5 50 -11 l31 -11 -22 -40 c-14 -24 -45 -56 -77 -77 -29 -19 -48
-37 -43 -39 6 -2 19 4 29 13 10 8 34 29 54 45 20 16 44 44 52 62 15 31 15 34
-1 47 -15 12 -14 13 13 8 48 -8 72 -15 93 -26 11 -6 22 -8 25 -5 11 11 -5 34
-23 34 -11 0 -21 4 -24 8 -2 4 13 8 35 7 22 -1 45 5 51 12 8 11 7 12 -7 7 -13
-5 -16 -4 -11 4 5 8 2 10 -8 6 -9 -3 -16 -9 -16 -13 0 -3 -25 -4 -55 -3 -35 3
-65 -2 -85 -11 -16 -9 -32 -11 -35 -7 -3 5 12 14 34 20 22 6 43 15 46 20 3 6
21 9 38 9 l32 -2 -35 -7 -35 -7 33 -2 c41 -1 134 28 126 40 -3 5 -15 9 -28 9
-12 0 -27 5 -32 10 -11 11 -43 17 -106 19 l-37 1 4 53 c1 28 -2 78 -8 110 -9
51 -13 57 -31 51 -37 -11 -130 -56 -148 -71 -16 -14 -18 -13 -24 13 -4 16 -23
50 -43 75 -20 26 -41 54 -46 64 -9 15 -14 12 -43 -23z m435 -298 c-3 -3 -12
-4 -19 -1 -8 3 -5 6 6 6 11 1 17 -2 13 -5z m90 -20 c-3 -3 -12 -4 -19 -1 -8 3
-5 6 6 6 11 1 17 -2 13 -5z"/>
<path d="M1851 2390 c-8 -4 -11 -15 -8 -24 8 -20 43 -21 51 -1 7 18 -25 37
-43 25z"/>
<path d="M1472 2373 c4 -22 38 -30 49 -12 11 19 2 29 -27 29 -19 0 -25 -5 -22
-17z"/>
<path d="M1180 2371 c0 -5 22 -58 48 -117 42 -94 52 -109 72 -109 20 0 30 15
72 109 26 59 48 112 48 117 0 5 -10 9 -23 9 -20 0 -29 -12 -58 -85 -18 -47
-36 -85 -39 -85 -3 0 -21 38 -39 85 -29 73 -38 85 -58 85 -13 0 -23 -4 -23 -9z"/>
<path d="M2524 2303 c63 -147 69 -158 94 -158 20 0 30 16 73 113 27 62 49 115
49 118 0 2 -11 4 -24 4 -21 0 -29 -11 -56 -77 -18 -43 -35 -82 -39 -86 -5 -4
-23 29 -42 75 -30 73 -38 83 -62 86 l-27 3 34 -78z"/>
<path d="M1645 2323 c-31 -8 -55 -34 -55 -59 0 -35 39 -56 97 -52 37 2 48 0
48 -12 0 -19 -85 -26 -115 -10 -16 9 -22 8 -27 -6 -18 -47 132 -59 178 -13 24
24 24 44 -2 70 -16 16 -30 20 -72 17 -41 -2 -52 0 -52 12 0 12 12 15 58 13 43
-1 57 2 57 12 0 8 -3 16 -7 18 -14 8 -88 15 -108 10z"/>
<path d="M2024 2319 c-39 -11 -62 -37 -70 -76 -9 -46 37 -93 96 -100 82 -9
135 47 116 123 -11 44 -83 71 -142 53z m86 -49 c26 -26 25 -55 -2 -74 -44 -31
-108 -7 -108 39 0 49 73 72 110 35z"/>
<path d="M2315 2321 c-11 -5 -32 -6 -47 -4 l-28 6 0 -92 c0 -84 1 -91 20 -91
18 0 20 7 20 65 0 61 2 66 26 75 62 24 94 -5 94 -85 0 -48 2 -55 20 -55 18 0
20 7 20 68 0 59 -3 72 -23 90 -26 25 -73 35 -102 23z"/>
<path d="M2840 2312 c-119 -59 -35 -205 94 -162 43 14 66 44 66 85 0 42 -24
72 -68 85 -49 13 -51 13 -92 -8z m108 -49 c17 -24 15 -40 -8 -63 -38 -38 -110
-15 -110 36 0 50 86 69 118 27z"/>
<path d="M3115 2316 c-17 -7 -36 -20 -44 -29 -19 -23 -16 -85 4 -108 25 -26
78 -40 117 -28 38 10 43 7 29 -19 -13 -24 -53 -35 -94 -26 -27 6 -46 -5 -47
-27 0 -12 88 -18 123 -8 57 15 67 39 67 151 l0 98 -27 -1 c-16 -1 -44 1 -63 5
-21 3 -47 1 -65 -8z m89 -36 c21 -8 26 -16 26 -44 0 -30 -4 -36 -34 -46 -51
-16 -96 7 -96 51 0 16 40 49 59 49 11 0 31 -4 45 -10z"/>
<path d="M3683 2323 c-36 -7 -73 -49 -73 -83 0 -44 16 -70 55 -86 60 -25 151
-11 139 21 -5 11 -15 13 -45 9 -39 -7 -99 10 -99 27 0 5 38 9 85 9 47 0 85 4
85 9 0 60 -75 108 -147 94z m78 -53 l24 -19 -65 0 -65 0 24 19 c13 11 31 20
41 20 10 0 28 -9 41 -20z"/>
<path d="M1480 2230 c0 -83 1 -90 20 -90 19 0 20 7 20 90 0 83 -1 90 -20 90
-19 0 -20 -7 -20 -90z"/>
<path d="M1849 2318 c0 -2 -1 -41 -2 -88 -1 -80 0 -85 21 -88 21 -3 22 0 22
87 0 84 -1 91 -20 91 -11 0 -20 -1 -21 -2z"/>
<path d="M3340 2263 c0 -32 6 -69 13 -83 16 -32 67 -47 112 -32 20 6 35 6 35
1 0 -5 9 -9 20 -9 19 0 20 7 20 90 0 83 -1 90 -20 90 -18 0 -20 -7 -20 -60 0
-66 -16 -84 -68 -78 -33 4 -52 38 -52 96 0 35 -3 42 -20 42 -18 0 -20 -7 -20
-57z"/>
<path d="M653 1865 c0 -33 2 -46 4 -28 4 30 27 51 38 33 3 -4 6 -20 7 -34 3
-33 18 -34 18 -2 0 29 -25 57 -44 50 -9 -4 -16 3 -19 18 -2 13 -4 -4 -4 -37z"/>
<path d="M3103 1865 c0 -33 2 -45 4 -27 2 18 2 45 0 60 -2 15 -4 0 -4 -33z"/>
<path d="M421 1894 c0 -11 3 -14 6 -6 3 7 2 16 -1 19 -3 4 -6 -2 -5 -13z"/>
<path d="M441 1894 c0 -11 3 -14 6 -6 3 7 2 16 -1 19 -3 4 -6 -2 -5 -13z"/>
<path d="M481 1907 c-2 -18 22 -97 29 -97 5 0 15 19 23 43 l14 42 13 -42 c7
-24 17 -43 22 -43 4 0 8 1 8 3 0 1 7 24 15 50 8 26 10 45 5 42 -5 -3 -12 -21
-16 -40 -8 -42 -21 -37 -30 10 -8 46 -19 44 -36 -7 l-15 -43 -16 45 c-8 25
-16 41 -16 37z"/>
<path d="M1081 1896 c-16 -19 -10 -66 10 -79 18 -11 69 -2 69 13 0 6 -9 5 -20
-2 -26 -17 -55 0 -55 32 0 32 29 49 55 32 11 -7 20 -8 20 -3 0 23 -62 28 -79
7z"/>
<path d="M1198 1888 c-2 -13 -1 -36 3 -53 5 -24 7 -20 8 23 1 54 -4 68 -11 30z"/>
<path d="M1477 1897 c-2 -7 -1 -30 3 -52 l8 -40 1 53 c1 52 -2 64 -12 39z"/>
<path d="M1680 1858 c0 -28 2 -49 4 -47 8 9 13 99 5 99 -5 0 -9 -23 -9 -52z"/>
<path d="M1748 1888 c-13 -20 -17 -21 -32 -9 -9 7 -16 9 -16 3 0 -5 7 -15 15
-22 13 -11 19 -9 33 11 l17 24 6 -45 6 -45 1 53 c2 56 -7 65 -30 30z"/>
<path d="M2027 1897 c-2 -7 -1 -30 3 -52 l8 -40 1 53 c1 52 -2 64 -12 39z"/>
<path d="M2228 1885 c-8 -19 -8 -31 0 -51 10 -21 18 -25 44 -22 17 2 33 9 36
16 3 11 1 11 -17 0 -27 -17 -56 0 -56 32 0 32 29 49 55 32 11 -7 20 -8 20 -3
0 5 -7 12 -16 15 -32 12 -55 6 -66 -19z"/>
<path d="M2561 1860 c1 -55 1 -55 9 -15 4 22 4 47 -1 55 -5 10 -8 -5 -8 -40z"/>
<path d="M2990 1860 l0 -50 43 2 42 1 -37 4 c-47 5 -54 33 -8 33 17 0 30 4 30
9 0 4 -12 8 -27 7 -18 -1 -29 5 -31 16 -2 13 6 18 35 21 l38 4 -42 1 -43 2 0
-50z"/>
<path d="M3457 1897 c-2 -7 -1 -30 3 -52 l8 -40 1 53 c1 52 -2 64 -12 39z"/>
<path d="M3660 1904 c0 -6 7 -17 15 -24 8 -7 19 -27 24 -44 8 -26 9 -27 10 -8
1 13 10 37 22 53 24 34 16 39 -11 7 l-18 -23 -21 25 c-11 14 -20 20 -21 14z"/>
<path d="M4099 1863 c10 -26 23 -49 28 -50 6 -2 17 16 27 39 22 61 19 72 -6
18 l-20 -45 -19 43 c-25 57 -33 54 -10 -5z"/>
<path d="M760 1876 c-19 -24 -8 -61 19 -64 13 -2 28 2 35 8 8 9 4 10 -15 5
-16 -4 -30 -2 -33 4 -5 7 4 11 23 11 32 0 41 16 19 38 -16 16 -33 15 -48 -2z
m50 -17 c0 -5 -11 -9 -25 -9 -26 0 -34 15 -12 23 16 5 37 -3 37 -14z"/>
<path d="M930 1876 c-19 -24 -8 -61 19 -64 13 -2 28 2 35 8 8 9 4 10 -15 5
-16 -4 -30 -2 -33 4 -5 7 4 11 23 11 36 0 42 23 12 40 -25 13 -26 13 -41 -4z
m50 -17 c0 -5 -11 -9 -25 -9 -26 0 -34 15 -12 23 16 5 37 -3 37 -14z"/>
<path d="M1256 1877 c-11 -8 -17 -23 -14 -38 2 -19 10 -25 36 -27 31 -3 32 -2
32 31 0 23 -6 37 -16 41 -20 8 -17 8 -38 -7z m42 -31 c-2 -13 -10 -21 -23 -21
-23 0 -33 34 -14 45 20 13 40 -1 37 -24z"/>
<path d="M1375 1881 c-3 -6 -11 -9 -16 -6 -5 4 -8 -11 -8 -32 1 -27 3 -31 6
-13 2 14 12 31 20 37 9 7 14 15 11 19 -3 3 -9 0 -13 -5z"/>
<path d="M1828 1879 c-21 -12 -23 -40 -6 -57 14 -14 44 -16 52 -3 3 4 -5 6
-18 4 -13 -3 -27 0 -30 6 -5 7 5 11 28 11 39 0 45 10 20 34 -18 19 -23 19 -46
5z m40 -17 c2 -7 -7 -12 -23 -12 -24 0 -26 2 -15 15 14 17 31 16 38 -3z"/>
<path d="M1926 1874 c-19 -19 -20 -36 -4 -52 14 -14 58 -16 58 -3 0 4 -11 6
-25 3 -15 -2 -25 0 -25 7 0 6 14 11 30 11 17 0 30 4 30 9 0 12 -29 41 -40 41
-5 0 -16 -7 -24 -16z m42 -12 c2 -7 -6 -12 -17 -12 -21 0 -27 11 -14 24 9 9
26 2 31 -12z"/>
<path d="M2093 1883 c-22 -8 -14 -32 12 -39 32 -8 33 -28 0 -22 -13 3 -22 1
-19 -3 3 -5 16 -9 30 -9 32 0 32 28 -2 40 -30 12 -22 34 9 25 17 -5 19 -4 7 4
-16 12 -19 12 -37 4z"/>
<path d="M2355 1874 c-19 -20 -16 -43 8 -58 20 -13 50 2 55 26 3 16 -23 48
-38 48 -5 0 -16 -7 -25 -16z m45 -9 c16 -19 6 -45 -19 -45 -23 0 -35 28 -20
46 15 18 24 18 39 -1z"/>
<path d="M2805 1877 c-25 -19 -16 -61 14 -65 13 -2 28 2 35 8 8 9 4 10 -15 5
-16 -4 -30 -2 -33 4 -5 7 4 11 23 11 35 0 42 23 12 39 -13 7 -23 6 -36 -2z
m45 -18 c0 -5 -11 -9 -25 -9 -26 0 -34 15 -12 23 16 5 37 -3 37 -14z"/>
<path d="M3156 1874 c-19 -19 -20 -36 -4 -52 14 -14 58 -16 58 -3 0 4 -11 6
-25 3 -15 -2 -25 0 -25 7 0 6 14 11 30 11 35 0 41 23 11 40 -25 13 -27 13 -45
-6z m42 -12 c2 -7 -6 -12 -17 -12 -21 0 -27 11 -14 24 9 9 26 2 31 -12z"/>
<path d="M3351 1876 c-7 -8 -11 -25 -9 -38 2 -18 10 -23 36 -24 30 -1 32 1 32
33 0 18 -4 33 -9 33 -5 0 -16 2 -24 5 -7 3 -19 -1 -26 -9z m47 -30 c-2 -13
-10 -21 -23 -21 -23 0 -33 34 -14 45 20 13 40 -1 37 -24z"/>
<path d="M3526 1877 c-26 -19 -18 -61 13 -65 13 -2 28 1 33 6 6 6 1 8 -15 5
-14 -3 -28 0 -31 6 -5 7 4 11 23 11 32 0 41 16 19 38 -15 15 -20 15 -42 -1z
m44 -18 c0 -5 -11 -9 -25 -9 -26 0 -34 15 -12 23 16 5 37 -3 37 -14z"/>
<path d="M3775 1877 c-27 -20 -13 -67 20 -67 38 0 53 51 21 72 -15 11 -20 10
-41 -5z m43 -30 c3 -22 -1 -27 -18 -27 -26 0 -37 25 -20 45 18 22 34 13 38
-18z"/>
<path d="M4263 1883 c-22 -8 -14 -32 12 -39 14 -3 25 -11 25 -16 0 -6 -11 -8
-25 -6 -14 3 -25 1 -25 -4 0 -14 53 -5 58 9 2 7 -8 17 -23 23 -15 6 -23 15
-20 21 4 6 14 8 22 5 8 -3 11 -1 8 4 -7 11 -13 11 -32 3z"/>
<path d="M4404 1882 c-32 -21 -17 -72 21 -72 33 0 47 47 20 67 -21 15 -26 16
-41 5z m36 -17 c16 -20 6 -45 -19 -45 -23 0 -32 18 -19 43 11 21 22 22 38 2z"/>
<path d="M4508 1883 c-14 -3 -18 -14 -17 -41 1 -28 3 -31 6 -12 11 57 52 61
54 6 2 -31 2 -31 6 -3 4 26 -11 59 -26 56 -3 -1 -14 -3 -23 -6z"/>
<path d="M851 1843 l1 -38 10 30 c6 17 16 33 22 37 6 5 1 8 -11 8 -20 0 -23
-5 -22 -37z"/>
<path d="M1423 1845 c0 -22 2 -30 4 -17 2 12 2 30 0 40 -3 9 -5 -1 -4 -23z"/>
<path d="M1536 1865 c4 -11 9 -35 13 -54 l6 -34 22 52 c12 28 18 51 14 51 -4
0 -12 -12 -17 -27 l-10 -28 -18 30 c-9 17 -14 21 -10 10z"/>
<path d="M2453 1850 c2 -32 5 -35 35 -38 31 -3 32 -2 31 35 -1 36 -2 37 -8 8
-4 -21 -12 -30 -26 -30 -14 0 -22 9 -27 30 -6 29 -6 29 -5 -5z"/>
<path d="M2623 1850 c2 -32 5 -35 35 -38 31 -3 32 -2 31 35 -1 36 -2 37 -8 8
-4 -21 -12 -30 -26 -30 -14 0 -22 9 -27 30 -6 29 -6 29 -5 -5z"/>
<path d="M2720 1845 c0 -19 5 -35 10 -35 6 0 10 13 10 29 0 16 6 32 13 34 6 3
2 6 -10 6 -20 1 -23 -4 -23 -34z"/>
<path d="M3254 1848 c19 -43 29 -45 44 -6 15 40 7 51 -9 12 l-12 -29 -10 28
c-6 15 -14 27 -18 27 -5 0 -2 -14 5 -32z"/>
<path d="M3873 1848 c2 -27 7 -34 28 -36 21 -2 27 2 31 22 3 14 1 31 -3 38 -6
8 -9 2 -9 -19 0 -26 -4 -33 -19 -33 -14 0 -21 9 -25 30 -6 30 -6 30 -3 -2z"/>
<path d="M3971 1840 c1 -27 3 -29 6 -10 2 14 11 30 20 37 13 10 13 12 -6 10
-17 -1 -21 -7 -20 -37z"/>
<path d="M4203 1845 c0 -22 2 -30 4 -17 2 12 2 30 0 40 -3 9 -5 -1 -4 -23z"/>
<path d="M4343 1845 c0 -22 2 -30 4 -17 2 12 2 30 0 40 -3 9 -5 -1 -4 -23z"/>
</g>
</svg>
