<?xml version="1.0" standalone="no"?>
<!DOCTYPE svg PUBLIC "-//W3C//DTD SVG 20010904//EN"
 "http://www.w3.org/TR/2001/REC-SVG-20010904/DTD/svg10.dtd">
<svg version="1.0" xmlns="http://www.w3.org/2000/svg"
 width="500.000000pt" height="500.000000pt" viewBox="0 0 500.000000 500.000000"
 preserveAspectRatio="xMidYMid meet">

<g transform="translate(0.000000,500.000000) scale(0.100000,-0.100000)"
fill="#000000" stroke="none">
<path d="M2478 3183 c-13 -16 -40 -51 -58 -80 l-32 -51 -47 28 c-25 16 -59 32
-76 36 -16 4 -35 11 -42 16 -17 14 -25 -21 -26 -127 l-1 -93 -65 -6 c-36 -3
-69 -10 -75 -16 -5 -5 -25 -10 -44 -10 l-33 0 23 -41 c27 -48 135 -169 151
-169 6 0 18 -6 26 -14 20 -17 120 -46 158 -45 24 0 21 3 -22 20 -56 23 -87 48
-117 97 -27 43 -16 54 59 60 l58 4 -4 44 c-1 25 0 55 3 69 5 21 9 23 36 15 16
-5 40 -16 52 -24 30 -21 34 -21 48 13 6 16 22 39 34 50 l23 22 25 -38 c13 -21
27 -46 31 -56 6 -16 9 -16 44 7 21 13 48 27 61 31 19 6 22 3 23 -27 1 -18 1
-50 0 -70 -2 -30 1 -38 14 -38 9 0 13 5 10 10 -3 6 -1 10 4 10 6 0 11 -4 11
-10 0 -5 9 -10 20 -10 11 0 20 4 20 10 0 5 18 14 40 20 21 6 42 15 45 20 3 6
21 9 38 9 l32 -2 -35 -7 c-35 -7 -35 -7 -5 -9 35 -1 130 27 100 29 -17 2 -16
3 5 10 25 8 25 8 2 9 -13 1 -33 6 -44 12 -12 7 -48 13 -81 14 l-59 2 -2 106
c-1 58 -4 109 -7 112 -9 8 -122 -40 -165 -71 -21 -14 -22 -13 -33 17 -9 26
-41 72 -91 132 -3 4 -18 -5 -32 -20z m425 -300 c-7 -2 -19 -2 -25 0 -7 3 -2 5
12 5 14 0 19 -2 13 -5z"/>
<path d="M2962 2831 c-11 -6 -10 -10 4 -15 9 -3 19 -4 22 -1 3 3 0 5 -7 5 -7
0 -9 5 -6 10 7 12 4 12 -13 1z"/>
<path d="M2820 2813 c-8 -4 -21 -12 -28 -20 -12 -11 -8 -13 26 -7 29 4 52 1
85 -14 28 -12 49 -17 53 -11 3 5 0 8 -8 7 -7 -2 -12 3 -10 10 1 6 -4 12 -12
12 -8 0 -18 4 -21 10 -3 5 0 7 8 4 8 -3 18 -1 22 5 7 12 -87 14 -115 4z"/>
<path d="M2822 2775 c4 -4 1 -20 -8 -36 -8 -16 -12 -29 -10 -29 3 0 12 13 21
29 12 23 12 31 2 37 -6 4 -9 4 -5 -1z"/>
<path d="M2771 2679 c-13 -11 -22 -22 -19 -24 2 -3 15 6 28 20 28 30 24 32 -9
4z"/>
<path d="M2685 2620 c-3 -5 -1 -10 4 -10 6 0 11 5 11 10 0 6 -2 10 -4 10 -3 0
-8 -4 -11 -10z"/>
<path d="M1474 2379 c-9 -15 12 -33 30 -26 9 4 16 13 16 22 0 17 -35 21 -46 4z"/>
<path d="M1842 2373 c2 -10 12 -18 23 -18 11 0 21 8 23 18 3 13 -3 17 -23 17
-20 0 -26 -4 -23 -17z"/>
<path d="M1184 2363 c4 -10 26 -62 49 -115 37 -87 45 -98 67 -98 22 0 30 11
67 98 61 140 59 132 32 132 -21 0 -29 -12 -58 -85 -19 -47 -37 -85 -41 -85 -4
0 -22 38 -41 85 -29 73 -37 85 -58 85 -18 0 -22 -4 -17 -17z"/>
<path d="M2540 2270 c28 -62 50 -114 50 -117 0 -2 12 -3 27 -1 23 3 32 16 75
113 26 60 48 111 48 112 0 2 -11 3 -24 3 -20 0 -28 -11 -56 -82 -18 -46 -36
-86 -40 -91 -3 -4 -22 32 -41 80 -31 78 -38 88 -62 91 l-27 3 50 -111z"/>
<path d="M1480 2235 c0 -78 2 -85 20 -85 18 0 20 7 20 85 0 78 -2 85 -20 85
-18 0 -20 -7 -20 -85z"/>
<path d="M1610 2300 c-46 -46 -18 -81 67 -83 44 -2 58 -6 58 -17 0 -12 -14
-15 -69 -15 -45 0 -71 -4 -73 -12 -11 -31 134 -38 167 -8 22 20 27 70 8 81 -7
5 -37 7 -67 7 -64 -2 -77 3 -60 24 9 10 28 14 63 11 40 -2 51 0 51 12 0 11
-15 16 -62 18 -52 2 -66 -1 -83 -18z"/>
<path d="M1850 2235 c0 -78 2 -85 20 -85 18 0 20 7 20 85 0 78 -2 85 -20 85
-18 0 -20 -7 -20 -85z"/>
<path d="M1985 2295 c-24 -24 -29 -40 -25 -80 5 -51 81 -86 144 -65 69 22 90
99 40 145 -39 36 -124 36 -159 0z m123 -21 c43 -30 16 -94 -41 -94 -37 0 -67
25 -67 56 0 26 34 54 65 54 11 0 31 -7 43 -16z"/>
<path d="M2240 2233 c0 -76 2 -83 20 -83 16 0 19 8 22 62 3 59 5 63 31 72 21
8 35 7 55 -5 24 -13 27 -22 30 -72 3 -49 6 -57 22 -57 18 0 20 7 20 60 0 51
-4 65 -24 85 -22 22 -33 25 -100 23 l-76 -1 0 -84z"/>
<path d="M2817 2300 c-56 -44 -41 -117 30 -147 72 -30 153 12 153 79 -1 58
-40 88 -113 88 -29 0 -53 -7 -70 -20z m123 -30 c24 -24 25 -38 4 -68 -29 -42
-114 -23 -114 25 0 57 69 84 110 43z"/>
<path d="M3085 2295 c-34 -33 -34 -87 1 -122 23 -23 31 -25 85 -21 66 5 78 -9
34 -38 -19 -12 -37 -15 -69 -11 -32 5 -46 3 -49 -7 -9 -22 2 -26 67 -26 97 1
116 27 116 158 l0 89 -80 1 c-74 2 -83 0 -105 -23z m126 -15 c30 -17 26 -74
-6 -88 -35 -16 -56 -15 -83 4 -63 44 19 121 89 84z"/>
<path d="M3340 2265 c0 -30 5 -65 11 -79 14 -29 68 -51 101 -40 13 4 38 6 56
6 l32 -1 0 84 c0 78 -2 85 -20 85 -18 0 -20 -7 -20 -60 0 -48 -4 -61 -19 -70
-58 -31 -101 4 -101 82 0 41 -3 48 -20 48 -18 0 -20 -7 -20 -55z"/>
<path d="M3639 2291 c-48 -49 -33 -109 35 -136 52 -21 126 -13 126 14 0 16 -7
17 -49 13 -47 -4 -91 9 -91 28 0 6 37 10 85 10 47 0 85 2 85 5 0 3 -6 21 -14
40 -18 42 -42 55 -101 55 -38 0 -52 -5 -76 -29z m127 -18 c17 -17 15 -18 -40
-21 -66 -3 -80 3 -52 24 27 19 71 18 92 -3z"/>
<path d="M441 1894 c0 -11 3 -14 6 -6 3 7 2 16 -1 19 -3 4 -6 -2 -5 -13z"/>
<path d="M481 1900 c0 -8 4 -24 9 -35 5 -13 9 -14 9 -5 0 8 -4 24 -9 35 -5 13
-9 14 -9 5z"/>
<path d="M529 1871 c-7 -22 -16 -38 -20 -35 -5 3 -9 1 -9 -5 0 -28 21 -16 31
18 7 22 16 38 20 35 5 -3 9 -1 9 5 0 28 -21 16 -31 -18z"/>
<path d="M650 1860 c0 -29 2 -51 5 -48 8 7 9 87 2 95 -4 3 -7 -18 -7 -47z"/>
<path d="M1115 1903 c11 -3 27 -10 35 -17 13 -10 13 -9 1 7 -7 9 -23 16 -35
16 -20 -1 -20 -2 -1 -6z"/>
<path d="M1682 1860 l1 -55 6 45 c6 43 7 44 19 22 l14 -24 23 22 24 22 4 -43
c3 -44 4 -43 5 9 2 57 -7 65 -32 27 l-17 -25 -24 27 -24 28 1 -55z"/>
<path d="M2028 1898 c-2 -7 -1 -31 3 -53 6 -40 6 -39 8 13 1 51 -3 65 -11 40z"/>
<path d="M2236 1894 c-33 -32 -8 -89 35 -81 23 4 23 4 -3 6 -21 1 -29 7 -34
26 -11 43 34 73 64 43 8 -8 12 -8 12 -1 0 25 -52 30 -74 7z"/>
<path d="M2560 1860 c0 -29 2 -51 4 -49 8 8 10 88 3 95 -4 4 -7 -17 -7 -46z"/>
<path d="M2990 1860 l0 -50 43 2 c41 1 41 1 6 5 -35 4 -37 6 -37 43 -1 38 1
39 36 43 l37 4 -42 1 -43 2 0 -50z"/>
<path d="M3103 1860 c0 -30 2 -43 4 -27 2 15 2 39 0 55 -2 15 -4 2 -4 -28z"/>
<path d="M3458 1898 c-2 -7 -1 -31 3 -53 6 -40 6 -39 8 13 1 51 -3 65 -11 40z"/>
<path d="M3675 1886 c10 -16 21 -41 25 -55 l8 -26 1 26 c1 14 8 34 16 45 8 10
14 24 15 29 0 6 -8 -3 -19 -18 l-18 -28 -23 28 -22 28 17 -29z"/>
<path d="M4086 1897 c3 -10 9 -15 12 -12 3 3 0 11 -7 18 -10 9 -11 8 -5 -6z"/>
<path d="M1477 1893 c-3 -5 -1 -17 4 -28 7 -17 8 -17 8 8 1 27 -4 34 -12 20z"/>
<path d="M695 1870 c3 -5 8 -10 11 -10 2 0 4 5 4 10 0 6 -5 10 -11 10 -5 0 -7
-4 -4 -10z"/>
<path d="M754 1866 c-10 -27 1 -51 25 -54 13 -2 27 0 32 5 6 6 -2 8 -21 5 -18
-3 -30 0 -30 7 0 6 14 11 30 11 30 0 42 21 20 35 -6 3 -7 -1 -4 -9 5 -12 -1
-16 -21 -16 -20 0 -26 4 -21 15 3 8 3 15 0 15 -2 0 -7 -6 -10 -14z"/>
<path d="M865 1869 c-4 -6 -5 -12 -2 -15 2 -3 7 2 10 11 7 17 1 20 -8 4z"/>
<path d="M924 1866 c-8 -22 -1 -49 14 -52 7 -1 8 0 2 3 -20 10 -9 23 20 23 30
0 42 21 20 35 -6 3 -7 -1 -4 -9 5 -12 -1 -16 -21 -16 -20 0 -26 4 -21 15 3 8
3 15 0 15 -2 0 -7 -6 -10 -14z"/>
<path d="M1071 1860 c0 -15 4 -31 11 -38 18 -18 53 -15 69 6 13 15 12 16 -3 4
-28 -22 -62 -11 -69 23 -6 28 -7 28 -8 5z"/>
<path d="M1245 1869 c-4 -5 -4 -21 -1 -35 5 -19 13 -24 36 -24 28 0 30 3 30
35 0 19 -4 35 -8 35 -5 0 -6 -14 -4 -31 4 -28 2 -30 -19 -27 -19 2 -24 9 -24
31 1 30 -1 32 -10 16z"/>
<path d="M1351 1841 c1 -28 3 -30 6 -11 3 14 9 30 14 36 5 7 3 11 -6 11 -11 0
-15 -11 -14 -36z"/>
<path d="M1423 1845 c0 -22 2 -30 4 -17 2 12 2 30 0 40 -3 9 -5 -1 -4 -23z"/>
<path d="M1530 1875 c0 -5 5 -17 10 -25 5 -8 10 -10 10 -5 0 6 -5 17 -10 25
-5 8 -10 11 -10 5z"/>
<path d="M1867 1864 c5 -14 1 -16 -25 -12 -33 5 -42 -8 -20 -30 14 -14 44 -16
52 -3 3 4 -5 6 -18 4 -13 -3 -27 0 -30 6 -5 7 4 11 23 11 31 0 43 21 21 35 -6
4 -7 -1 -3 -11z"/>
<path d="M1920 1869 c0 -5 5 -7 10 -4 6 3 10 8 10 11 0 2 -4 4 -10 4 -5 0 -10
-5 -10 -11z"/>
<path d="M1969 1866 c10 -12 6 -15 -26 -19 l-38 -4 43 -1 c23 -1 42 0 42 2 0
14 -14 36 -22 36 -6 0 -6 -6 1 -14z"/>
<path d="M2085 1871 c-3 -5 -2 -12 3 -15 5 -3 9 1 9 9 0 17 -3 19 -12 6z"/>
<path d="M2400 1865 c19 -23 4 -48 -25 -43 -13 3 -22 1 -19 -3 8 -14 40 -10
54 6 13 16 5 55 -12 55 -6 0 -6 -6 2 -15z"/>
<path d="M2453 1848 c2 -30 5 -33 35 -34 31 -1 32 1 31 35 -1 36 -1 36 -8 6
-9 -44 -48 -48 -55 -6 l-6 31 3 -32z"/>
<path d="M2622 1855 c0 -16 2 -22 5 -12 2 9 2 23 0 30 -3 6 -5 -1 -5 -18z"/>
<path d="M2678 1853 c-2 -19 -11 -29 -28 -34 -22 -7 -21 -7 8 -6 29 1 32 4 32
34 0 40 -7 43 -12 6z"/>
<path d="M2735 1869 c-4 -6 -5 -12 -2 -15 2 -3 7 2 10 11 7 17 1 20 -8 4z"/>
<path d="M2794 1866 c-10 -27 1 -51 25 -54 13 -2 27 0 32 5 6 6 -2 8 -21 5
-18 -3 -30 0 -30 7 0 6 14 11 30 11 30 0 42 21 20 35 -6 3 -7 -1 -4 -9 5 -12
-1 -16 -21 -16 -20 0 -26 4 -21 15 3 8 3 15 0 15 -2 0 -7 -6 -10 -14z"/>
<path d="M3199 1866 c10 -12 6 -15 -26 -19 l-38 -4 43 -1 c23 -1 42 0 42 2 0
14 -14 36 -22 36 -6 0 -6 -6 1 -14z"/>
<path d="M3345 1869 c-4 -6 -5 -12 -2 -15 2 -3 7 2 10 11 7 17 1 20 -8 4z"/>
<path d="M3395 1853 c0 -31 -31 -45 -47 -21 -8 10 -9 10 -5 -2 2 -9 16 -15 35
-16 30 -1 32 1 32 33 0 18 -4 33 -8 33 -4 0 -8 -12 -7 -27z"/>
<path d="M3515 1869 c-4 -5 -4 -21 -1 -35 5 -17 13 -24 31 -24 13 0 26 4 29 9
3 4 -5 6 -18 4 -13 -3 -27 0 -30 6 -5 7 4 11 23 11 31 0 43 21 21 35 -6 3 -7
-1 -4 -9 5 -12 -1 -16 -21 -16 -20 0 -26 4 -21 15 6 17 0 20 -9 4z"/>
<path d="M3873 1848 c2 -28 6 -34 30 -36 21 -3 27 1 26 15 0 10 -3 13 -6 6
-10 -26 -42 -14 -47 17 -6 30 -6 30 -3 -2z"/>
<path d="M3971 1841 c1 -28 3 -30 6 -11 3 14 9 30 14 36 5 7 3 11 -6 11 -11 0
-15 -11 -14 -36z"/>
<path d="M4146 1865 c-9 -26 -7 -32 5 -12 6 10 9 21 6 23 -2 3 -7 -2 -11 -11z"/>
<path d="M4203 1845 c0 -22 2 -30 4 -17 2 12 2 30 0 40 -3 9 -5 -1 -4 -23z"/>
<path d="M4250 1865 c0 -8 4 -15 10 -15 5 0 7 7 4 15 -4 8 -8 15 -10 15 -2 0
-4 -7 -4 -15z"/>
<path d="M4343 1845 c0 -22 2 -30 4 -17 2 12 2 30 0 40 -3 9 -5 -1 -4 -23z"/>
<path d="M4490 1845 c0 -19 2 -35 4 -35 2 0 6 16 8 35 2 19 0 35 -4 35 -4 0
-8 -16 -8 -35z"/>
<path d="M4549 1842 c5 -34 6 -35 9 -8 2 16 0 32 -5 37 -5 5 -7 -7 -4 -29z"/>
<path d="M560 1859 c0 -8 7 -24 15 -35 19 -25 19 -14 0 22 -8 16 -15 22 -15
13z"/>
<path d="M3250 1865 c0 -5 5 -17 10 -25 5 -8 10 -10 10 -5 0 6 -5 17 -10 25
-5 8 -10 11 -10 5z"/>
<path d="M4101 1868 c-1 -4 4 -19 11 -33 11 -25 28 -34 28 -15 0 6 -4 10 -8
10 -5 0 -14 10 -20 23 -6 12 -11 19 -11 15z"/>
<path d="M3281 1833 c-10 -26 -10 -27 4 -9 8 11 15 23 15 28 0 15 -7 8 -19
-19z"/>
<path d="M3761 1849 c-2 -34 58 -54 65 -21 1 7 0 8 -3 2 -9 -18 -43 -10 -53
13 -6 15 -9 17 -9 6z"/>
<path d="M4448 1842 c-6 -23 -42 -31 -51 -12 -3 6 -4 5 -3 -2 1 -7 12 -14 23
-16 22 -3 47 21 41 40 -3 7 -7 2 -10 -10z"/>
<path d="M1563 1834 c-15 -16 -16 -24 -4 -24 8 0 24 30 19 35 -2 2 -9 -3 -15
-11z"/>
<path d="M2119 1842 c7 -5 10 -15 7 -21 -4 -6 -2 -11 4 -11 17 0 8 33 -10 37
-12 4 -13 3 -1 -5z"/>
<path d="M4290 1841 c13 -10 13 -12 0 -22 -13 -9 -13 -10 0 -6 8 2 15 10 15
17 0 7 -7 15 -15 17 -13 4 -13 3 0 -6z"/>
<path d="M970 1820 c-9 -6 -10 -10 -3 -10 6 0 15 5 18 10 8 12 4 12 -15 0z"/>
<path d="M1927 1818 c2 -5 13 -8 23 -8 10 0 21 3 23 8 3 4 -8 7 -23 7 -15 0
-26 -3 -23 -7z"/>
<path d="M2087 1819 c7 -7 15 -10 18 -7 3 3 -2 9 -12 12 -14 6 -15 5 -6 -5z"/>
<path d="M3157 1818 c2 -5 13 -8 23 -8 10 0 21 3 23 8 3 4 -8 7 -23 7 -15 0
-26 -3 -23 -7z"/>
</g>
</svg>
